<svg width="446" height="183" viewBox="0 0 446 183" fill="none" xmlns="http://www.w3.org/2000/svg">
<g clip-path="url(#clip0_0_1)">
<g clip-path="url(#clip1_0_1)">
<path d="M227.358 18.5885C216.288 18.5885 205.67 22.9862 197.843 30.8145C190.015 38.6418 185.617 49.259 185.617 60.3299C185.617 71.4008 190.015 82.018 197.843 89.8453C205.67 97.6739 216.288 102.071 227.358 102.071C238.429 102.071 249.047 97.6739 256.874 89.8453C264.702 82.018 269.1 71.4008 269.1 60.3299C269.087 49.2636 264.686 38.6535 256.86 30.8281C249.035 23.0034 238.425 18.6011 227.358 18.5885ZM215.432 82.1944C215.432 82.7215 215.223 83.2273 214.85 83.6C214.478 83.9727 213.972 84.1821 213.445 84.1821H201.519C200.421 84.1821 199.531 83.2921 199.531 82.1944V52.3792C199.531 51.2815 200.421 50.3914 201.519 50.3914H213.445C213.972 50.3914 214.478 50.6009 214.85 50.9736C215.223 51.3462 215.432 51.8521 215.432 52.3792V82.1944ZM235.309 82.1944C235.309 82.7215 235.1 83.2273 234.727 83.6C234.354 83.9727 233.849 84.1821 233.322 84.1821H221.395C220.298 84.1821 219.408 83.2921 219.408 82.1944V36.4777C219.408 35.38 220.298 34.49 221.395 34.49H233.322C233.849 34.49 234.354 34.6994 234.727 35.0721C235.1 35.4448 235.309 35.9506 235.309 36.4777V82.1944ZM255.186 82.1944C255.186 82.7215 254.977 83.2273 254.604 83.6C254.231 83.9727 253.725 84.1821 253.198 84.1821H241.272C240.175 84.1821 239.285 83.2921 239.285 82.1944V44.4284C239.285 43.3307 240.175 42.4407 241.272 42.4407H253.198C253.725 42.4407 254.231 42.6501 254.604 43.0228C254.977 43.3955 255.186 43.9013 255.186 44.4284V82.1944Z" fill="#9ABCFF"/>
<path d="M273.025 62.3176C272.565 73.0581 268.321 83.2902 261.041 91.2038L270.888 101.056C280.771 90.525 286.477 76.7541 286.939 62.3178L273.025 62.3176Z" fill="#9ABCFF"/>
<path d="M258.232 94.014C251.971 99.7684 244.227 103.659 235.873 105.248C227.52 106.837 218.888 106.06 210.951 103.005C203.016 99.9499 196.091 94.7394 190.958 87.9593L179.489 95.8985C186.186 104.914 195.294 111.854 205.763 115.919C216.232 119.984 227.637 121.009 238.663 118.876C249.689 116.742 259.889 111.537 268.085 103.861L258.232 94.014Z" fill="#9ABCFF"/>
<path d="M229.346 14.6629C240.766 15.174 251.582 19.9399 259.666 28.0228C267.748 36.1067 272.514 46.9218 273.026 58.3425H286.94C286.436 43.228 280.206 28.8701 269.513 18.1753C258.819 7.48176 244.461 1.25157 229.345 0.748398L229.346 14.6629Z" fill="#9ABCFF"/>
<path d="M188.695 84.6796C182.971 75.6135 180.619 64.8214 182.051 54.1942C183.484 43.5691 188.609 33.7848 196.529 26.5574C204.448 19.33 214.659 15.1192 225.372 14.6624V0.748611C211.256 1.21271 197.764 6.67442 187.301 16.1594C176.838 25.6453 170.082 38.5378 168.238 52.5397C166.395 66.5424 169.583 80.7445 177.236 92.6138L188.695 84.6796Z" fill="#9ABCFF"/>
</g>
</g>
<path d="M18.5534 182.677C15.1377 182.677 12.0388 181.99 9.25697 180.617C6.5103 179.208 4.32705 177.131 2.70722 174.384C1.08739 171.637 0.27748 168.274 0.27748 164.295C0.27748 161.267 0.770471 158.608 1.75645 156.319C2.74244 154.03 4.08056 152.111 5.77081 150.562C7.49628 149.012 9.46825 147.85 11.6867 147.076C13.9404 146.301 16.3173 145.914 18.8175 145.914C20.8247 145.914 22.6734 146.143 24.3636 146.6C26.0539 147.058 27.6385 147.692 29.1175 148.502L29.3288 154.999H28.8006L26.1595 150.773C25.8074 150.104 25.42 149.505 24.9975 148.977C24.5749 148.414 24.0467 147.991 23.4129 147.71C22.8847 147.463 22.3565 147.287 21.8283 147.181C21.3353 147.04 20.7014 146.97 19.9267 146.97C17.8843 146.97 16.018 147.516 14.3277 148.607C12.6727 149.699 11.3346 151.513 10.3134 154.048C9.3274 156.548 8.8344 159.982 8.8344 164.348C8.8344 168.679 9.30979 172.113 10.2606 174.648C11.2113 177.148 12.4966 178.944 14.1165 180.036C15.7715 181.092 17.6202 181.62 19.6626 181.62C20.7894 181.62 21.6874 181.55 22.3565 181.409C23.0255 181.233 23.6946 180.986 24.3636 180.67C25.0327 180.388 25.5433 179.983 25.8954 179.455C26.2476 178.891 26.5645 178.293 26.8462 177.659L29.1703 172.482H29.6985L29.54 180.036C28.0611 180.81 26.406 181.444 24.5749 181.937C22.7438 182.43 20.7366 182.677 18.5534 182.677ZM45.4675 182.518C42.7913 182.518 40.4672 181.972 38.4952 180.881C36.5232 179.754 34.9914 178.169 33.8998 176.127C32.8434 174.085 32.3152 171.69 32.3152 168.943C32.3152 166.197 32.8786 163.82 34.0054 161.813C35.1675 159.805 36.7345 158.256 38.7065 157.164C40.7136 156.073 42.9673 155.527 45.4675 155.527C47.9677 155.527 50.2037 156.073 52.1757 157.164C54.1477 158.221 55.6971 159.753 56.8239 161.76C57.986 163.767 58.567 166.162 58.567 168.943C58.567 171.725 58.0212 174.137 56.9295 176.18C55.8731 178.187 54.3589 179.754 52.387 180.881C50.4502 181.972 48.1437 182.518 45.4675 182.518ZM45.4675 181.462C46.7 181.462 47.686 181.11 48.4254 180.405C49.1649 179.701 49.6931 178.451 50.0101 176.655C50.3622 174.859 50.5383 172.324 50.5383 169.049C50.5383 165.739 50.3622 163.186 50.0101 161.39C49.6931 159.594 49.1649 158.344 48.4254 157.64C47.686 156.936 46.7 156.583 45.4675 156.583C44.235 156.583 43.2314 156.936 42.4567 157.64C41.7172 158.344 41.1714 159.594 40.8193 161.39C40.5024 163.186 40.3439 165.739 40.3439 169.049C40.3439 172.324 40.5024 174.859 40.8193 176.655C41.1714 178.451 41.7172 179.701 42.4567 180.405C43.2314 181.11 44.235 181.462 45.4675 181.462ZM60.887 181.726V181.198L61.6264 180.986C62.8589 180.634 63.4752 179.772 63.4752 178.398V161.865C63.4752 161.091 63.3519 160.527 63.1054 160.175C62.8589 159.788 62.3835 159.524 61.6793 159.383L60.887 159.172V158.643L69.9193 155.58L70.4475 156.108L70.87 159.277C72.1025 158.186 73.4935 157.288 75.0429 156.583C76.5923 155.879 78.1241 155.527 79.6382 155.527C81.9623 155.527 83.7406 156.161 84.9731 157.429C86.2408 158.696 86.8747 160.633 86.8747 163.239V178.451C86.8747 179.824 87.5437 180.687 88.8818 181.039L89.3572 181.198V181.726H76.8916V181.198L77.5782 180.986C78.8107 180.599 79.427 179.736 79.427 178.398V161.549C79.427 159.295 78.3001 158.168 76.0464 158.168C74.497 158.168 72.8068 158.943 70.9757 160.492V178.451C70.9757 179.824 71.5919 180.687 72.8244 181.039L73.2998 181.198V181.726H60.887ZM101.202 182.518C98.9481 182.518 97.1874 181.955 95.9198 180.828C94.6873 179.701 94.071 177.905 94.071 175.44V157.376H90.4264V156.847L91.6941 156.636C92.7857 156.39 93.7189 156.038 94.4936 155.58C95.3035 155.122 96.0958 154.506 96.8705 153.731L101.202 148.924H101.73L101.572 156.319H107.487V157.376H101.519V176.391C101.519 177.624 101.783 178.557 102.311 179.191C102.874 179.824 103.579 180.141 104.424 180.141C105.163 180.141 105.815 179.965 106.378 179.613C106.942 179.226 107.505 178.715 108.068 178.081L108.597 178.61C107.892 179.807 106.924 180.758 105.692 181.462C104.459 182.166 102.962 182.518 101.202 182.518ZM117.963 182.518C115.921 182.518 114.195 181.937 112.787 180.775C111.413 179.613 110.727 177.94 110.727 175.757C110.727 174.102 111.572 172.588 113.262 171.215C114.952 169.806 117.611 168.75 121.238 168.045C121.802 167.94 122.435 167.834 123.14 167.729C123.844 167.588 124.583 167.447 125.358 167.306V163.133C125.358 160.739 125.059 159.066 124.46 158.115C123.897 157.129 122.999 156.636 121.766 156.636C120.921 156.636 120.252 156.918 119.759 157.481C119.266 158.01 118.949 158.943 118.808 160.281L118.703 160.862C118.632 162.376 118.263 163.485 117.593 164.19C116.924 164.894 116.097 165.246 115.111 165.246C114.195 165.246 113.438 164.964 112.84 164.401C112.241 163.837 111.942 163.08 111.942 162.13C111.942 160.686 112.435 159.471 113.421 158.485C114.442 157.499 115.78 156.759 117.435 156.266C119.09 155.773 120.886 155.527 122.823 155.527C125.957 155.527 128.369 156.302 130.059 157.851C131.785 159.365 132.647 161.848 132.647 165.299V176.972C132.647 178.557 133.387 179.349 134.866 179.349H136.028L136.503 179.772C135.834 180.617 135.095 181.268 134.285 181.726C133.51 182.184 132.401 182.413 130.957 182.413C129.408 182.413 128.175 182.06 127.26 181.356C126.379 180.617 125.798 179.648 125.517 178.451C124.46 179.578 123.369 180.546 122.242 181.356C121.15 182.131 119.724 182.518 117.963 182.518ZM121.185 179.296C121.89 179.296 122.541 179.138 123.14 178.821C123.773 178.469 124.513 177.94 125.358 177.236V168.362C125.006 168.433 124.654 168.503 124.302 168.574C123.95 168.644 123.545 168.714 123.087 168.785C121.467 169.207 120.164 169.929 119.178 170.951C118.227 171.937 117.752 173.275 117.752 174.965C117.752 176.409 118.086 177.5 118.756 178.24C119.425 178.944 120.235 179.296 121.185 179.296ZM146.623 182.413L137.696 181.726V181.198L138.224 181.092C139.597 180.775 140.284 179.895 140.284 178.451V150.192C140.284 149.453 140.161 148.889 139.914 148.502C139.703 148.114 139.245 147.85 138.541 147.71L137.801 147.498V146.97L147.204 144.699L147.837 145.174L147.626 152.622V157.957C148.788 157.147 150.056 156.548 151.429 156.161C152.803 155.738 154.193 155.527 155.602 155.527C157.609 155.527 159.387 156.002 160.937 156.953C162.486 157.869 163.701 159.312 164.581 161.284C165.497 163.221 165.955 165.721 165.955 168.785C165.955 171.849 165.444 174.402 164.423 176.444C163.437 178.451 162.099 179.965 160.409 180.986C158.754 182.008 156.923 182.518 154.915 182.518C153.612 182.518 152.292 182.342 150.954 181.99C149.651 181.638 148.489 181.145 147.468 180.511L146.623 182.413ZM152.274 180.722C153.401 180.722 154.387 180.37 155.232 179.666C156.077 178.962 156.746 177.764 157.239 176.074C157.732 174.349 157.979 171.989 157.979 168.996C157.979 166.003 157.75 163.697 157.292 162.077C156.834 160.457 156.183 159.33 155.338 158.696C154.528 158.062 153.542 157.745 152.38 157.745C150.725 157.745 149.193 158.203 147.785 159.119V179.402C148.454 179.824 149.14 180.159 149.845 180.405C150.549 180.617 151.359 180.722 152.274 180.722ZM174.62 152.78C173.423 152.78 172.402 152.411 171.557 151.671C170.747 150.896 170.342 149.928 170.342 148.766C170.342 147.569 170.747 146.6 171.557 145.861C172.402 145.121 173.423 144.752 174.62 144.752C175.818 144.752 176.821 145.121 177.631 145.861C178.441 146.6 178.846 147.569 178.846 148.766C178.846 149.928 178.441 150.896 177.631 151.671C176.821 152.411 175.818 152.78 174.62 152.78ZM168.387 181.726V181.198L169.127 180.986C169.831 180.775 170.307 180.458 170.553 180.036C170.835 179.613 170.976 179.05 170.976 178.345V161.813C170.976 161.073 170.835 160.527 170.553 160.175C170.307 159.788 169.831 159.524 169.127 159.383L168.387 159.224V158.696L178.054 155.58L178.582 156.108L178.423 163.609V178.398C178.423 179.103 178.547 179.666 178.793 180.089C179.075 180.511 179.55 180.828 180.219 181.039L180.747 181.198V181.726H168.387ZM183.244 181.726V181.198L183.878 180.986C185.146 180.564 185.78 179.684 185.78 178.345V150.086C185.78 149.382 185.639 148.854 185.357 148.502C185.076 148.114 184.583 147.833 183.878 147.657L183.192 147.498V146.97L192.858 144.699L193.492 145.174L193.28 152.569V170.634C193.28 171.937 193.28 173.239 193.28 174.542C193.316 175.81 193.333 177.078 193.333 178.345C193.333 179.05 193.474 179.631 193.756 180.089C194.037 180.511 194.513 180.828 195.182 181.039L195.869 181.198V181.726H183.244ZM204.538 152.78C203.341 152.78 202.32 152.411 201.475 151.671C200.665 150.896 200.26 149.928 200.26 148.766C200.26 147.569 200.665 146.6 201.475 145.861C202.32 145.121 203.341 144.752 204.538 144.752C205.735 144.752 206.739 145.121 207.549 145.861C208.359 146.6 208.764 147.569 208.764 148.766C208.764 149.928 208.359 150.896 207.549 151.671C206.739 152.411 205.735 152.78 204.538 152.78ZM198.305 181.726V181.198L199.045 180.986C199.749 180.775 200.224 180.458 200.471 180.036C200.753 179.613 200.894 179.05 200.894 178.345V161.813C200.894 161.073 200.753 160.527 200.471 160.175C200.224 159.788 199.749 159.524 199.045 159.383L198.305 159.224V158.696L207.971 155.58L208.5 156.108L208.341 163.609V178.398C208.341 179.103 208.464 179.666 208.711 180.089C208.993 180.511 209.468 180.828 210.137 181.039L210.665 181.198V181.726H198.305ZM224.202 182.518C222.124 182.518 220.258 182.06 218.603 181.145C216.948 180.194 215.627 178.75 214.641 176.814C213.691 174.842 213.215 172.324 213.215 169.26C213.215 166.162 213.761 163.609 214.853 161.601C215.944 159.559 217.388 158.045 219.184 157.059C220.98 156.038 222.934 155.527 225.047 155.527C226.279 155.527 227.459 155.65 228.586 155.897C229.713 156.143 230.716 156.513 231.597 157.006V150.139C231.597 149.4 231.473 148.854 231.227 148.502C231.016 148.15 230.54 147.903 229.801 147.762L228.797 147.551V147.023L238.411 144.699L238.992 145.174L238.78 152.569V178.398C238.78 179.103 238.904 179.684 239.15 180.141C239.396 180.564 239.854 180.863 240.523 181.039L240.999 181.198V181.726L231.966 182.307L231.491 180.405C230.54 181.039 229.449 181.55 228.216 181.937C227.019 182.325 225.681 182.518 224.202 182.518ZM227.265 180.564C228.744 180.564 230.1 180.124 231.333 179.243V158.274C230.03 157.429 228.692 157.006 227.318 157.006C225.628 157.006 224.184 157.992 222.987 159.964C221.79 161.901 221.191 164.964 221.191 169.155C221.191 173.345 221.754 176.303 222.881 178.029C224.008 179.719 225.469 180.564 227.265 180.564ZM250.53 182.518C248.488 182.518 246.762 181.937 245.354 180.775C243.981 179.613 243.294 177.94 243.294 175.757C243.294 174.102 244.139 172.588 245.829 171.215C247.52 169.806 250.178 168.75 253.805 168.045C254.369 167.94 255.002 167.834 255.707 167.729C256.411 167.588 257.151 167.447 257.925 167.306V163.133C257.925 160.739 257.626 159.066 257.027 158.115C256.464 157.129 255.566 156.636 254.333 156.636C253.488 156.636 252.819 156.918 252.326 157.481C251.833 158.01 251.516 158.943 251.375 160.281L251.27 160.862C251.199 162.376 250.83 163.485 250.161 164.19C249.492 164.894 248.664 165.246 247.678 165.246C246.762 165.246 246.005 164.964 245.407 164.401C244.808 163.837 244.509 163.08 244.509 162.13C244.509 160.686 245.002 159.471 245.988 158.485C247.009 157.499 248.347 156.759 250.002 156.266C251.657 155.773 253.453 155.527 255.39 155.527C258.524 155.527 260.936 156.302 262.626 157.851C264.352 159.365 265.214 161.848 265.214 165.299V176.972C265.214 178.557 265.954 179.349 267.433 179.349H268.595L269.07 179.772C268.401 180.617 267.662 181.268 266.852 181.726C266.077 182.184 264.968 182.413 263.524 182.413C261.975 182.413 260.742 182.06 259.827 181.356C258.946 180.617 258.365 179.648 258.084 178.451C257.027 179.578 255.936 180.546 254.809 181.356C253.717 182.131 252.291 182.518 250.53 182.518ZM253.752 179.296C254.457 179.296 255.108 179.138 255.707 178.821C256.341 178.469 257.08 177.94 257.925 177.236V168.362C257.573 168.433 257.221 168.503 256.869 168.574C256.517 168.644 256.112 168.714 255.654 168.785C254.034 169.207 252.731 169.929 251.745 170.951C250.794 171.937 250.319 173.275 250.319 174.965C250.319 176.409 250.654 177.5 251.323 178.24C251.992 178.944 252.802 179.296 253.752 179.296ZM281.355 182.518C279.278 182.518 277.411 182.06 275.756 181.145C274.101 180.194 272.781 178.75 271.795 176.814C270.844 174.842 270.369 172.324 270.369 169.26C270.369 166.162 270.914 163.609 272.006 161.601C273.098 159.559 274.541 158.045 276.337 157.059C278.133 156.038 280.088 155.527 282.2 155.527C283.433 155.527 284.613 155.65 285.739 155.897C286.866 156.143 287.87 156.513 288.75 157.006V150.139C288.75 149.4 288.627 148.854 288.38 148.502C288.169 148.15 287.694 147.903 286.954 147.762L285.951 147.551V147.023L295.564 144.699L296.145 145.174L295.934 152.569V178.398C295.934 179.103 296.057 179.684 296.303 180.141C296.55 180.564 297.008 180.863 297.677 181.039L298.152 181.198V181.726L289.12 182.307L288.644 180.405C287.694 181.039 286.602 181.55 285.37 181.937C284.172 182.325 282.834 182.518 281.355 182.518ZM284.419 180.564C285.898 180.564 287.254 180.124 288.486 179.243V158.274C287.183 157.429 285.845 157.006 284.472 157.006C282.781 157.006 281.338 157.992 280.14 159.964C278.943 161.901 278.344 164.964 278.344 169.155C278.344 173.345 278.908 176.303 280.035 178.029C281.162 179.719 282.623 180.564 284.419 180.564ZM313.746 155.527C316.035 155.527 317.989 156.002 319.609 156.953C321.229 157.869 322.461 159.136 323.306 160.756C324.187 162.341 324.627 164.154 324.627 166.197C324.627 166.584 324.609 166.989 324.574 167.412C324.539 167.799 324.468 168.151 324.363 168.468H308.622C308.657 172.271 309.326 175.018 310.629 176.708C311.967 178.363 313.939 179.191 316.545 179.191C318.306 179.191 319.732 178.909 320.824 178.345C321.915 177.782 322.937 176.954 323.887 175.863L324.416 176.338C323.324 178.275 321.863 179.789 320.031 180.881C318.236 181.972 316.07 182.518 313.535 182.518C311.034 182.518 308.816 181.99 306.879 180.934C304.942 179.842 303.428 178.293 302.337 176.285C301.245 174.278 300.699 171.884 300.699 169.102C300.699 166.214 301.333 163.767 302.601 161.76C303.868 159.717 305.488 158.168 307.46 157.112C309.467 156.055 311.563 155.527 313.746 155.527ZM313.587 156.583C312.566 156.583 311.686 156.9 310.946 157.534C310.242 158.133 309.679 159.224 309.256 160.809C308.869 162.358 308.657 164.559 308.622 167.412H317.655C318.007 163.573 317.866 160.809 317.232 159.119C316.598 157.429 315.383 156.583 313.587 156.583ZM338.868 181.726V181.198L339.977 180.775C341.104 180.317 341.667 179.419 341.667 178.081V150.509C341.667 149.1 341.104 148.203 339.977 147.815L338.868 147.393V146.864H352.812C356.545 146.864 359.749 147.569 362.426 148.977C365.137 150.351 367.215 152.34 368.658 154.946C370.137 157.517 370.877 160.615 370.877 164.242C370.877 167.94 370.085 171.091 368.5 173.697C366.915 176.303 364.697 178.293 361.845 179.666C359.028 181.039 355.7 181.726 351.862 181.726H338.868ZM349.59 180.67H351.862C354.397 180.67 356.439 180.177 357.989 179.191C359.538 178.169 360.665 176.479 361.369 174.12C362.109 171.725 362.478 168.45 362.478 164.295C362.478 160.14 362.109 156.883 361.369 154.523C360.665 152.129 359.556 150.439 358.042 149.453C356.527 148.431 354.538 147.921 352.073 147.921H349.59V180.67ZM372.136 181.726V181.198L373.192 180.828C374.39 180.441 374.988 179.437 374.988 177.817V150.773C374.988 150.069 374.9 149.505 374.724 149.083C374.583 148.66 374.178 148.308 373.509 148.026L372.136 147.393V146.864H382.33L392.102 172.43L401.293 146.864H411.699V147.393L410.853 147.71C410.184 147.956 409.727 148.308 409.48 148.766C409.234 149.189 409.11 149.752 409.11 150.456V178.081C409.11 178.786 409.198 179.331 409.374 179.719C409.551 180.106 409.973 180.441 410.642 180.722L411.699 181.198V181.726H398.546V181.198L399.655 180.722C400.325 180.441 400.747 180.106 400.923 179.719C401.099 179.331 401.187 178.786 401.187 178.081V166.197L401.293 151.09L390.253 181.726H387.612L376.098 151.46L376.256 164.612V177.923C376.256 178.698 376.362 179.331 376.573 179.824C376.819 180.282 377.277 180.617 377.946 180.828L379.108 181.198V181.726H372.136ZM431.211 182.677C427.619 182.677 424.45 181.937 421.703 180.458C418.992 178.944 416.862 176.814 415.312 174.067C413.798 171.285 413.041 168.01 413.041 164.242C413.041 160.58 413.798 157.376 415.312 154.629C416.826 151.882 419.01 149.752 421.862 148.238C424.749 146.688 428.236 145.914 432.32 145.914C434.187 145.914 435.912 146.125 437.497 146.547C439.117 146.97 440.648 147.586 442.092 148.396L442.303 155.791H441.775L438.817 150.298C438.36 149.417 437.937 148.784 437.55 148.396C437.162 148.009 436.669 147.71 436.071 147.498C435.507 147.322 434.979 147.199 434.486 147.129C434.028 147.023 433.412 146.97 432.637 146.97C430.454 146.97 428.517 147.551 426.827 148.713C425.172 149.875 423.887 151.724 422.971 154.259C422.056 156.795 421.598 160.122 421.598 164.242C421.598 168.327 422.02 171.655 422.866 174.225C423.746 176.796 424.978 178.68 426.563 179.877C428.148 181.039 429.979 181.62 432.056 181.62C432.373 181.62 432.673 181.603 432.954 181.567C433.271 181.497 433.57 181.427 433.852 181.356C434.521 181.251 434.961 180.969 435.173 180.511C435.384 180.053 435.49 179.507 435.49 178.874V168.415C435.49 167.042 434.785 166.197 433.377 165.88L430.947 165.246V164.718H445.842V165.246L445.103 165.457C443.765 165.88 443.096 166.76 443.096 168.098V179.56C441.265 180.582 439.398 181.356 437.497 181.884C435.63 182.413 433.535 182.677 431.211 182.677Z" fill="#0AC4FF"/>
<defs>
<clipPath id="clip0_0_1">
<rect width="123.798" height="123.798" fill="white" transform="translate(165.101 0.748398)"/>
</clipPath>
<clipPath id="clip1_0_1">
<rect width="120.13" height="119.213" fill="white" transform="translate(167.394 0.748398)"/>
</clipPath>
</defs>
</svg>
